# xmcd
#
# Track frame offsets:
#	150
#	15648
#	30673
#	46924
#	63572
#	79523
#	93798
#	115672
#	147673
#	165444
#	182670
#	197859
#	212896
#	227332
#	241576
#	258799
#	271403
#	293030
#	308561
#	323374
#
# Disc length: 4493 seconds
#
# Revision: 1
# Processed by: cddbd v1.5.2PL0 Copyright (c) Steve Scherf et al.
# Submitted via: audiograbber 1.83.01
#
DISCID=fd118b14
DTITLE=Clarke,Mick - West Coast Connection/Steel and fire
DYEAR=2009
DGENRE=Blues
TTITLE0=Hard times
TTITLE1=Madison Blues
TTITLE2=Ain't that the truth
TTITLE3=Mona
TTITLE4=You don't have to cry
TTITLE5=Guitar Boogie
TTITLE6=Walking Blues
TTITLE7=Mean old world
TTITLE8=Nothin' but a fool
TTITLE9=TV Blues
TTITLE10=Midnight cruise
TTITLE11=2nd street
TTITLE12=You're the one
TTITLE13=Up and go
TTITLE14=Driving wheel
TTITLE15=Wild ride
TTITLE16=Closing line
TTITLE17=Steel and fire
TTITLE18=Dust on the highway
TTITLE19=Yer rock'n'roll
EXTD=
EXTT0=
EXTT1=
EXTT2=
EXTT3=
EXTT4=
EXTT5=
EXTT6=
EXTT7=
EXTT8=
EXTT9=
EXTT10=
EXTT11=
EXTT12=
EXTT13=
EXTT14=
EXTT15=
EXTT16=
EXTT17=
EXTT18=
EXTT19=
PLAYORDER=
